#N canvas 628 165 633 328 10;
#X obj -118 -51 ggee/image C:/Users/yash6/OneDrive/Documents/GitHub/chatservice-minigame/340434.png
0 0 640 399 empty empty empty 640 399 1 0 10 #000000 0 -8 12.5 12.5
0 1 1;
#N canvas 0 0 1350 704 Client 1;
#X obj 296 78 netclient;
#X msg 604 35 connect localhost 3000;
#X msg 604 102 disconnect;
#X floatatom 349 101 5 0 0 0 - - -, f 5;
#X floatatom 297 296 5 0 0 0 - - -, f 5;
#X obj 342 295 print list;
#X obj 296 274 route float list;
#X obj 667 286 bng 10 250 50 0 empty empty empty 17 7 0 10 #fcfcfc
#000000 #000000;
#X obj 324 247 gate 1 0;
#X obj 683 287 bng 8 250 50 0 empty empty empty 17 7 0 10 #53f00f #6ff20d
#000000;
#X msg 297 207 1;
#X obj 698 287 bng 8 250 50 0 empty empty empty 17 7 0 10 #ff0000 #ff0000
#000000;
#X obj 602 241 route auth? authok autherror;
#X msg 603 197 Invalid authentication... disconnecting...;
#X obj 603 220 print CONSOLE;
#X msg 296 178 0;
#X msg 602 326 1;
#X msg 601 301 0;
#X obj 602 350 gate 1 1;
#X obj 603 148 sel 1;
#X msg 603 171 Connected... Authenticating...;
#X msg 601 265 Authenticated;
#X msg 604 78 send auth 123;
#X obj 767 266 print CHAT;
#X symbolatom 264 -289 57 0 0 0 - - -, f 57;
#X obj 78 187 list trim;
#X obj 78 168 list prepend send;
#X msg 603 125 Disconnected;
#X obj 77 124 sprintf %s:;
#X obj 77 146 list prepend;
#X obj 292 128 gate 1 0;
#X symbolatom 103 -291 25 0 0 2 Name: - -, f 25;
#X symbolatom 264 -292 57 0 0 2 Message: - -, f 57;
#X obj 290 -29 list trim;
#X msg 91 232 send Starting;
#X msg 161 101 send Greater;
#X msg 76 263 send Smaller;
#X obj 76 316 gate 1 0;
#X msg 76 289 1;
#X msg 297 319 0;
#X obj 404 319 route Oops!;
#X obj 291 -2 route !play !greater !smaller !help;
#X msg 323 42 send Help;
#X msg 604 58 connect 198.82.152.114 3000;
#X obj 328 -336 bng 22 250 50 0 empty empty empty 17 7 0 10 #4be800
#000000 #000000;
#X obj 361 -335 bng 21 250 50 0 empty empty empty 17 7 0 10 #ff2b2b
#000000 #000000;
#X obj 615 -278 ggee/image C:/Users/yash6/OneDrive/Documents/GitHub/chatservice-minigame/down-arrow-black-circular-button.png
0 1 25 25 empty empty empty 25 25 1 0 10 #000000 0 -8 12.5 12.5 0 1
1;
#X obj 642 -278 ggee/image C:/Users/yash6/OneDrive/Documents/GitHub/chatservice-minigame/up-arrow-button.png
0 1 25 25 empty empty empty 25 25 1 0 10 #000000 0 -8 12.5 12.5 0 1
1;
#X obj 630 -305 ggee/image C:/Users/yash6/OneDrive/Documents/GitHub/chatservice-minigame/play-black-triangle-interface-symbol-for-multimedia.png
0 1 24 24 empty empty empty 24 24 1 0 10 #000000 0 -8 12.5 12.5 0 1
1;
#X obj 45 -220 ggee/image C:/Users/yash6/OneDrive/Documents/GitHub/chatservice-minigame/kisspng-question-mark-computer-icons-symbol-clip-art-5af2a5d10a7d85.790217031525851601043.png
0 1 25 25 empty empty empty 25 25 1 0 10 #000000 0 -8 12.5 12.5 0 1
1;
#X obj 45 -355 ggee/image C:/Users/yash6/OneDrive/Documents/GitHub/chatservice-minigame/vckdbrsc96in8e6u9fg8jlhoso-01a288f620bc792355fa5042cff876e6.png
0 1 27 25 empty empty empty 27 25 1 0 10 #000000 0 -8 12.5 12.5 0 1
1;
#X msg 438 30 send Login;
#X msg 573 -58 send Succ;
#X msg 660 -54 send Fail;
#X symbolatom 76 -345 11 0 0 2 Passcode: - -, f 11;
#X obj 367 -157 list trim;
#X obj 571 -109 route yolo;
#X connect 0 0 6 0;
#X connect 0 1 3 0;
#X connect 1 0 0 0;
#X connect 2 0 30 1;
#X connect 2 0 15 0;
#X connect 2 0 16 0;
#X connect 2 0 27 0;
#X connect 3 0 30 0;
#X connect 3 0 19 0;
#X connect 6 0 4 0;
#X connect 6 1 5 0;
#X connect 6 2 12 0;
#X connect 6 2 40 0;
#X connect 7 0 22 0;
#X connect 8 0 0 0;
#X connect 9 0 10 0;
#X connect 9 0 21 0;
#X connect 10 0 8 0;
#X connect 11 0 13 0;
#X connect 11 0 2 0;
#X connect 12 0 18 1;
#X connect 12 1 9 0;
#X connect 12 1 17 0;
#X connect 12 2 11 0;
#X connect 12 3 23 0;
#X connect 13 0 14 0;
#X connect 15 0 10 0;
#X connect 16 0 18 0;
#X connect 17 0 16 0;
#X connect 18 0 7 0;
#X connect 19 0 20 0;
#X connect 20 0 14 0;
#X connect 21 0 14 0;
#X connect 22 0 30 1;
#X connect 25 0 8 1;
#X connect 26 0 25 0;
#X connect 27 0 14 0;
#X connect 28 0 29 1;
#X connect 29 0 26 0;
#X connect 30 0 0 0;
#X connect 31 0 28 0;
#X connect 32 0 29 0;
#X connect 32 0 33 0;
#X connect 33 0 41 0;
#X connect 34 0 38 0;
#X connect 34 0 8 1;
#X connect 35 0 37 1;
#X connect 36 0 37 1;
#X connect 37 0 8 1;
#X connect 38 0 37 0;
#X connect 39 0 37 0;
#X connect 40 0 39 0;
#X connect 41 0 34 0;
#X connect 41 1 35 0;
#X connect 41 2 36 0;
#X connect 41 3 42 0;
#X connect 42 0 0 0;
#X connect 43 0 0 0;
#X connect 44 0 1 0;
#X connect 45 0 2 0;
#X connect 46 0 36 0;
#X connect 47 0 35 0;
#X connect 48 0 34 0;
#X connect 49 0 42 0;
#X connect 50 0 51 0;
#X connect 51 0 0 0;
#X connect 52 0 0 0;
#X connect 53 0 0 0;
#X connect 54 0 55 0;
#X connect 55 0 56 0;
#X connect 56 0 52 0;
#X connect 56 1 53 0;
#X coords -1 -1 1 1 634 166 2 44 -360;
#X restore -118 32 pd Client;
