#N canvas 636 1 719 689 10;
#X obj 177 320 netclient;
#X msg 135 251 connect localhost 3000;
#X msg 382 125 disconnect;
#X floatatom 310 224 5 0 0 0 - - -, f 5;
#X floatatom 177 427 5 0 0 0 - - -, f 5;
#X obj 274 454 print list;
#X obj 177 374 route float list;
#X obj 202 199 bng 34 250 50 0 empty empty empty 17 7 0 10 #fcfcfc
#000000 #000000;
#X obj 335 553 bng 53 250 50 0 empty empty empty 17 7 0 10 #fcfcfc
#000000 #000000;
#X obj 58 273 gate 1 0;
#X obj 458 454 bng 53 250 50 0 empty empty empty 17 7 0 10 #53f00f
#6ff20d #000000;
#X msg 58 243 1;
#X obj 521 453 bng 53 250 50 0 empty empty empty 17 7 0 10 #ff0000
#ff0000 #000000;
#X obj 403 376 route auth? authok autherror;
#X msg 453 536 Invalid authentication... disconnecting...;
#X obj 437 608 print CONSOLE;
#X msg 57 214 0;
#X msg 349 490 1;
#X msg 358 466 0;
#X obj 381 524 gate 1 1;
#X obj 380 255 sel 1;
#X msg 382 298 Connected... Authenticating...;
#X msg 466 573 Authenticated;
#X msg 281 617 send auth 123;
#X obj 576 426 print CHAT;
#X symbolatom 215 29 57 0 0 0 - - -, f 57;
#X obj 50 120 list trim;
#X obj 137 104 list prepend send;
#X msg 416 165 Disconnected;
#X symbolatom 40 28 25 0 0 0 - - -, f 25;
#X obj 40 56 sprintf %s:;
#X obj 136 82 list prepend;
#X obj 308 254 gate 1 0;
#X symbolatom 40 28 25 0 0 0 - - -, f 25;
#X symbolatom 216 29 57 0 0 0 - - -, f 57;
#X obj 291 62 list trim;
#X msg 141 135 send Starting;
#X msg 188 171 send Greater;
#X msg 99 170 send Smaller;
#X obj 35 465 gate 1 0;
#X msg 37 422 1;
#X msg 4 422 0;
#X obj 171 480 route Oops!;
#X obj 291 86 route !play !greater !smaller !help;
#X msg 259 144 send Help;
#X connect 0 0 6 0;
#X connect 0 1 3 0;
#X connect 1 0 0 0;
#X connect 2 0 32 1;
#X connect 2 0 16 0;
#X connect 2 0 17 0;
#X connect 2 0 28 0;
#X connect 3 0 32 0;
#X connect 3 0 20 0;
#X connect 6 0 4 0;
#X connect 6 1 5 0;
#X connect 6 2 13 0;
#X connect 6 2 42 0;
#X connect 7 0 1 0;
#X connect 8 0 23 0;
#X connect 9 0 0 0;
#X connect 10 0 11 0;
#X connect 10 0 22 0;
#X connect 11 0 9 0;
#X connect 12 0 14 0;
#X connect 12 0 2 0;
#X connect 13 0 19 1;
#X connect 13 1 10 0;
#X connect 13 1 18 0;
#X connect 13 2 12 0;
#X connect 13 3 24 0;
#X connect 14 0 15 0;
#X connect 16 0 11 0;
#X connect 17 0 19 0;
#X connect 18 0 17 0;
#X connect 19 0 8 0;
#X connect 20 0 21 0;
#X connect 21 0 15 0;
#X connect 22 0 15 0;
#X connect 23 0 32 1;
#X connect 26 0 9 1;
#X connect 27 0 26 0;
#X connect 28 0 15 0;
#X connect 30 0 31 1;
#X connect 31 0 27 0;
#X connect 32 0 0 0;
#X connect 33 0 30 0;
#X connect 34 0 31 0;
#X connect 34 0 35 0;
#X connect 35 0 43 0;
#X connect 36 0 40 0;
#X connect 36 0 9 1;
#X connect 37 0 39 1;
#X connect 38 0 39 1;
#X connect 39 0 9 1;
#X connect 40 0 39 0;
#X connect 41 0 39 0;
#X connect 42 0 41 0;
#X connect 43 0 36 0;
#X connect 43 1 37 0;
#X connect 43 2 38 0;
#X connect 43 3 44 0;
#X connect 44 0 0 0;
