#N canvas 590 65 739 612 10;
#X obj 193 231 netclient;
#X msg 151 160 connect localhost 3000;
#X msg 398 36 disconnect;
#X floatatom 326 135 5 0 0 0 - - -, f 5;
#X floatatom 193 338 5 0 0 0 - - -, f 5;
#X obj 290 365 print list;
#X obj 193 287 route float list;
#X obj 324 165 gate 1 0;
#X obj 218 110 bng 34 250 50 0 empty empty empty 17 7 0 10 #fcfcfc
#000000 #000000;
#X obj 355 477 bng 53 250 50 0 empty empty empty 17 7 0 10 #fcfcfc
#000000 #000000;
#X obj 74 184 gate 1 0;
#X msg 115 129 send hello;
#X obj 474 365 bng 53 250 50 0 empty empty empty 17 7 0 10 #53f00f
#6ff20d #000000;
#X msg 74 154 1;
#X obj 537 364 bng 53 250 50 0 empty empty empty 17 7 0 10 #ff0000
#ff0000 #000000;
#X obj 403 316 route auth? authok autherror;
#X msg 469 447 Invalid authentication... disconnecting...;
#X obj 453 519 print CONSOLE;
#X msg 73 125 0;
#X msg 365 401 1;
#X msg 374 377 0;
#X obj 397 435 gate 1 1;
#X obj 396 166 sel 1;
#X msg 398 209 Connected... Authenticating...;
#X msg 482 484 Authenticated;
#X msg 290 559 send auth 123;
#X connect 0 0 6 0;
#X connect 0 1 3 0;
#X connect 1 0 0 0;
#X connect 2 0 7 1;
#X connect 2 0 18 0;
#X connect 2 0 19 0;
#X connect 3 0 7 0;
#X connect 3 0 22 0;
#X connect 6 0 4 0;
#X connect 6 1 5 0;
#X connect 6 2 15 0;
#X connect 7 0 0 0;
#X connect 8 0 1 0;
#X connect 9 0 25 0;
#X connect 10 0 0 0;
#X connect 11 0 10 1;
#X connect 12 0 13 0;
#X connect 12 0 24 0;
#X connect 13 0 10 0;
#X connect 14 0 16 0;
#X connect 14 0 2 0;
#X connect 15 0 21 1;
#X connect 15 1 12 0;
#X connect 15 1 20 0;
#X connect 15 2 14 0;
#X connect 16 0 17 0;
#X connect 18 0 13 0;
#X connect 19 0 21 0;
#X connect 20 0 19 0;
#X connect 21 0 9 0;
#X connect 22 0 23 0;
#X connect 23 0 17 0;
#X connect 24 0 17 0;
#X connect 25 0 7 1;
