#N canvas -1 0 697 689 10;
#X floatatom 384 281 5 0 0 0 - - -, f 5;
#X symbolatom 173 227 10 0 0 0 - - -, f 10;
#X text 149 280 number of connections;
#X msg 32 28 print;
#X floatatom 126 252 5 0 0 0 - - -, f 5;
#X text 184 256 socket number;
#X msg 65 155 broadcast hallo world!;
#X text 289 159 send to all clients;
#X obj 49 199 netserver 3000;
#X text 99 95 send message to client no. 1;
#X text 257 231 client's IP address;
#X msg 45 66 send 380 17.3;
#X msg 60 117 client 1 23;
#X text 166 66 "send <socketnumber> <data>";
#X text 82 37 send message on specified socket;
#X text 162 118 "client <clientnumber> <data>";
#X obj 333 324 change;
#X obj 179 10 print authenrication-code;
#X obj 43 419 sel 1 0;
#X obj 43 462 f;
#X msg 27 509 send \$1 authok;
#X msg 333 353 broadcast auth?;
#X obj 110 458 f, f 2;
#X obj 49 337 route auth;
#X obj 44 376 == 123;
#X msg 147 502 send \$1 autherror;
#X obj 206 420 list prepend broadcast;
#X obj 206 448 list trim;
#X floatatom 392 421 5 0 0 0 - - -, f 5;
#X obj 461 414 random 51;
#X msg 157 539 broadcast hello world;
#X obj 531 419 random 51;
#X obj 383 458 sel 1 0;
#X obj 459 578 f;
#X obj 459 609 + 1;
#X obj 408 520 gate 1 0;
#X obj 491 489 sel 1 0;
#X floatatom 495 602 5 0 0 0 - - -, f 5;
#X obj 326 519 gate 1 0;
#X msg 511 543 0;
#X msg 353 420 1;
#X obj 386 603 gate 1 0;
#X msg 359 576 1;
#X msg 397 578 0;
#X msg 458 642 broadcast Current streak \$1!;
#X obj 288 376 route Starting Greater Smaller Help;
#X msg 440 130 broadcast Rules: There is no strict rules for this game.
The game generates a random number between 0 and 50 \, all you need
to do is to guess if the number is greater or smaller than 25 You maintain
a streak for as many right answers you give. This streak breaks when
a wrong guess is made. You can either do it alone and challenge your
friends to beat a streak you created or do it along side them to achieve
a new streak., f 25;
#X msg 359 67 broadcast Hi this is a small guide to play the inbuilt
mini-game in this chat., f 25;
#X msg 529 10 broadcast Commands: !play: Use this command to start
a game !greater: Guess that the random number is going to be greater
than 25 !smaller: Guess that the random number is smaller than 25,
f 25;
#X msg 298 632 broadcast Oops!;
#X msg 75 632 broadcast That's correct!;
#X msg 33 567 broadcast Welcome to the chat mini-game. Make a guess!
(Use !greater or !smaller!);
#X obj 467 450 >= 25;
#X obj 534 449 <= 25;
#X connect 0 0 16 0;
#X connect 3 0 8 0;
#X connect 4 0 19 1;
#X connect 4 0 22 1;
#X connect 6 0 8 0;
#X connect 8 0 23 0;
#X connect 8 1 0 0;
#X connect 8 2 4 0;
#X connect 8 3 1 0;
#X connect 11 0 8 0;
#X connect 12 0 8 0;
#X connect 16 0 21 0;
#X connect 18 0 19 0;
#X connect 18 1 22 0;
#X connect 19 0 20 0;
#X connect 20 0 8 0;
#X connect 21 0 8 0;
#X connect 22 0 25 0;
#X connect 23 0 24 0;
#X connect 23 1 45 0;
#X connect 24 0 18 0;
#X connect 25 0 8 0;
#X connect 26 0 27 0;
#X connect 27 0 8 0;
#X connect 28 0 32 0;
#X connect 29 0 52 0;
#X connect 30 0 8 0;
#X connect 31 0 53 0;
#X connect 32 0 38 0;
#X connect 32 0 35 0;
#X connect 32 0 33 0;
#X connect 32 1 38 0;
#X connect 32 1 35 0;
#X connect 33 0 34 0;
#X connect 33 0 37 0;
#X connect 34 0 33 1;
#X connect 35 0 39 0;
#X connect 36 0 33 0;
#X connect 36 0 50 0;
#X connect 36 1 28 0;
#X connect 36 1 49 0;
#X connect 36 1 42 0;
#X connect 36 1 37 0;
#X connect 37 0 44 0;
#X connect 39 0 33 1;
#X connect 40 0 32 0;
#X connect 41 0 8 0;
#X connect 42 0 41 0;
#X connect 43 0 41 0;
#X connect 44 0 41 1;
#X connect 45 0 51 0;
#X connect 45 0 40 0;
#X connect 45 0 43 0;
#X connect 45 1 29 0;
#X connect 45 2 31 0;
#X connect 45 3 47 0;
#X connect 45 3 46 0;
#X connect 45 3 48 0;
#X connect 45 4 26 0;
#X connect 46 0 8 0;
#X connect 47 0 8 0;
#X connect 48 0 8 0;
#X connect 49 0 8 0;
#X connect 50 0 8 0;
#X connect 51 0 8 0;
#X connect 52 0 36 0;
#X connect 53 0 36 0;
