#N canvas 11 89 695 549 10;
#X floatatom 379 257 5 0 0 0 - - -, f 5;
#X symbolatom 168 203 10 0 0 0 - - -, f 10;
#X text 98 288 received data;
#X text 144 256 number of connections;
#X msg 45 10 print;
#X floatatom 121 228 5 0 0 0 - - -, f 5;
#X text 179 232 socket number;
#X msg 99 135 broadcast hallo world!;
#X text 284 135 send to all clients;
#X obj 44 175 netserver 3000;
#X text 133 76 send message to client no. 1;
#X text 252 207 client's IP address;
#X msg 79 47 send 380 17.3;
#X msg 94 98 client 1 23;
#X text 200 47 "send <socketnumber> <data>";
#X text 106 26 send message on specified socket;
#X text 196 99 "client <clientnumber> <data>";
#X obj 328 300 change;
#X obj 463 470 print authenrication-code;
#X obj 38 395 sel 1 0;
#X obj 38 438 f;
#X msg 10 480 send \$1 authok;
#X msg 328 329 broadcast auth?;
#X obj 105 434 f, f 2;
#X obj 44 313 route auth;
#X obj 39 352 == 123;
#X msg 142 478 send \$1 autherror;
#X obj 201 396 list prepend broadcast;
#X obj 201 424 list trim;
#X connect 0 0 17 0;
#X connect 4 0 9 0;
#X connect 5 0 20 1;
#X connect 5 0 23 1;
#X connect 7 0 9 0;
#X connect 9 0 24 0;
#X connect 9 1 0 0;
#X connect 9 2 5 0;
#X connect 9 3 1 0;
#X connect 12 0 9 0;
#X connect 13 0 9 0;
#X connect 17 0 22 0;
#X connect 19 0 20 0;
#X connect 19 1 23 0;
#X connect 20 0 21 0;
#X connect 21 0 9 0;
#X connect 22 0 9 0;
#X connect 23 0 26 0;
#X connect 24 0 25 0;
#X connect 24 1 27 0;
#X connect 25 0 19 0;
#X connect 26 0 9 0;
#X connect 27 0 28 0;
#X connect 28 0 9 0;
