#N canvas 0 0 1350 704 10;
#X floatatom 241 35 5 0 0 0 - - -, f 5;
#X symbolatom 329 417 10 0 0 0 - - -, f 10;
#X msg 472 -35 print;
#X floatatom 310 441 5 0 0 0 - - -, f 5;
#X obj 567 289 netserver 3000;
#X msg 485 3 send 380 17.3;
#X msg 500 54 client 1 23;
#X obj 234 68 change;
#X obj 207 413 sel 1 0;
#X obj 207 456 f;
#X msg 191 503 send \$1 authok;
#X msg 233 98 broadcast auth?;
#X obj 362 524 f, f 2;
#X obj 209 326 route auth;
#X obj 208 370 == 123;
#X msg 187 539 send \$1 autherror;
#X obj 1170 340 list prepend broadcast;
#X obj 1131 362 list trim;
#X floatatom 1000 399 5 0 0 0 - - -, f 5;
#X obj 1069 392 random 51;
#X obj 1139 397 random 51;
#X obj 991 436 sel 1 0;
#X obj 1067 556 f;
#X obj 1067 587 + 1;
#X obj 1016 498 gate 1 0;
#X obj 1099 467 sel 1 0;
#X floatatom 1101 589 5 0 0 0 - - -, f 5;
#X obj 934 497 gate 1 0;
#X msg 1119 521 0;
#X msg 961 398 1;
#X obj 994 581 gate 1 0;
#X msg 967 554 1;
#X msg 1005 556 0;
#X msg 1066 620 broadcast Current streak \$1!;
#X msg 945 18 broadcast Hi this is a small guide to play the inbuilt
mini-game in this chat., f 25;
#X msg 945 78 broadcast Commands: !play: Use this command to start
a game !greater: Guess that the random number is going to be greater
than 25 !smaller: Guess that the random number is smaller than 25,
f 25;
#X msg 185 569 broadcast Oops!;
#X obj 1075 428 >= 25;
#X obj 1142 427 <= 25;
#X msg 1101 -46 broadcast Rules: Hi this is a small guide to play the
inbuilt mini-game in this chat. There are no strict rules for this
game. The game generates a random number between 0 and 50 . All you
need to do is to guess if the number is greater or smaller than 25
. You maintain a streak for as many right answers you give. This streak
breaks when a wrong guess is made. You can either do it alone and challenge
your friends to beat your streak or do it alongside them to achieve
a new high score., f 25;
#X obj 1047 284 route Starting Greater Smaller Help Login Succ Fail
;
#X msg 912 322 broadcast Enter the passcode;
#X msg 909 348 broadcast Login Successful!;
#X msg 828 391 broadcast Login Failed!;
#X msg 180 597 broadcast Correct!;
#X msg 1132 264 broadcast Welcome to the chat mini-game. Make a guess!
;
#X msg 1131 239 broadcast Starting!;
#X connect 0 0 7 0;
#X connect 2 0 4 0;
#X connect 3 0 9 1;
#X connect 3 0 12 1;
#X connect 4 0 13 0;
#X connect 4 1 0 0;
#X connect 4 2 3 0;
#X connect 4 3 1 0;
#X connect 5 0 4 0;
#X connect 6 0 4 0;
#X connect 7 0 11 0;
#X connect 8 0 9 0;
#X connect 8 1 12 0;
#X connect 9 0 10 0;
#X connect 10 0 4 0;
#X connect 11 0 4 0;
#X connect 12 0 15 0;
#X connect 13 0 14 0;
#X connect 13 1 40 0;
#X connect 14 0 8 0;
#X connect 15 0 4 0;
#X connect 16 0 17 0;
#X connect 17 0 4 0;
#X connect 18 0 21 0;
#X connect 19 0 37 0;
#X connect 20 0 38 0;
#X connect 21 0 27 0;
#X connect 21 0 24 0;
#X connect 21 0 22 0;
#X connect 21 1 27 0;
#X connect 21 1 24 0;
#X connect 22 0 23 0;
#X connect 22 0 26 0;
#X connect 23 0 22 1;
#X connect 24 0 28 0;
#X connect 25 0 22 0;
#X connect 25 0 44 0;
#X connect 25 1 18 0;
#X connect 25 1 31 0;
#X connect 25 1 26 0;
#X connect 25 1 36 0;
#X connect 26 0 33 0;
#X connect 28 0 22 1;
#X connect 29 0 21 0;
#X connect 30 0 4 0;
#X connect 31 0 30 0;
#X connect 32 0 30 0;
#X connect 33 0 30 1;
#X connect 34 0 4 0;
#X connect 35 0 4 0;
#X connect 36 0 4 0;
#X connect 37 0 25 0;
#X connect 38 0 25 0;
#X connect 39 0 4 0;
#X connect 40 0 46 0;
#X connect 40 0 29 0;
#X connect 40 0 32 0;
#X connect 40 0 45 0;
#X connect 40 1 19 0;
#X connect 40 2 20 0;
#X connect 40 3 39 0;
#X connect 40 4 41 0;
#X connect 40 5 42 0;
#X connect 40 6 43 0;
#X connect 40 7 16 0;
#X connect 41 0 4 0;
#X connect 42 0 4 0;
#X connect 43 0 4 0;
#X connect 44 0 4 0;
#X connect 45 0 4 0;
#X connect 46 0 4 0;
